<mxfile host="app.diagrams.net" modified="2024-05-20T08:41:34.886Z" agent="Mozilla/5.0 (Windows NT 10.0; Win64; x64; rv:125.0) Gecko/20100101 Firefox/125.0" version="24.2.8" etag="IGk6i6MuSmSbQ6RQ6bWJ" type="github">
  <diagram name="Page-1" id="2zLNqzMHOFSXXn9jeBaC">
    <mxGraphModel>
      <root>
        <mxCell id="0" />
        <mxCell id="1" parent="0" />
      </root>
    </mxGraphModel>
  </diagram>
</mxfile>
